<svg xmlns="http://www.w3.org/2000/svg" viewBox="0 0 64 64" shape-rendering="crispEdges" role="img" aria-labelledby="title">
  <title id="title">Nabi pixel cat face</title>
  <g transform="translate(8 8) scale(2)">
    <rect x="5" y="3" width="2" height="1" fill="#241f2e"/>
    <rect x="17" y="3" width="2" height="1" fill="#241f2e"/>
    <rect x="4" y="4" width="4" height="1" fill="#241f2e"/>
    <rect x="16" y="4" width="4" height="1" fill="#241f2e"/>
    <rect x="4" y="5" width="5" height="1" fill="#9aa6b8"/>
    <rect x="15" y="5" width="5" height="1" fill="#9aa6b8"/>
    <rect x="5" y="6" width="3" height="1" fill="#ffb3c8"/>
    <rect x="16" y="6" width="3" height="1" fill="#ffb3c8"/>
    <rect x="3" y="7" width="18" height="1" fill="#241f2e"/>
    <rect x="2" y="8" width="20" height="1" fill="#241f2e"/>
    <rect x="2" y="8" width="20" height="8" fill="#9aa6b8"/>
    <rect x="3" y="9" width="18" height="8" fill="#9aa6b8"/>
    <rect x="4" y="16" width="16" height="1" fill="#241f2e"/>
    <rect x="5" y="17" width="14" height="1" fill="#241f2e"/>
    <rect x="7" y="18" width="10" height="1" fill="#241f2e"/>
    <rect x="11" y="8" width="2" height="1" fill="#6b7689"/>
    <rect x="10" y="9" width="1" height="1" fill="#6b7689"/>
    <rect x="13" y="9" width="1" height="1" fill="#6b7689"/>
    <rect x="11" y="10" width="2" height="1" fill="#6b7689"/>
    <rect x="4" y="12" width="2" height="1" fill="#6b7689"/>
    <rect x="18" y="12" width="2" height="1" fill="#6b7689"/>
    <rect x="6" y="12" width="3" height="3" fill="#241f2e"/>
    <rect x="15" y="12" width="3" height="3" fill="#241f2e"/>
    <rect x="6" y="12" width="1" height="1" fill="#ffffff"/>
    <rect x="15" y="12" width="1" height="1" fill="#ffffff"/>
    <rect x="7" y="16" width="10" height="4" fill="#fbfcff"/>
    <rect x="6" y="17" width="12" height="2" fill="#fbfcff"/>
    <rect x="10" y="16" width="4" height="1" fill="#ff8fae"/>
    <rect x="11" y="17" width="2" height="1" fill="#241f2e"/>
    <rect x="10" y="18" width="1" height="1" fill="#241f2e"/>
    <rect x="13" y="18" width="1" height="1" fill="#241f2e"/>
    <rect x="4" y="17" width="1" height="1" fill="#ffb3c8"/>
    <rect x="19" y="17" width="1" height="1" fill="#ffb3c8"/>
    <rect x="0" y="15" width="5" height="1" fill="#cdd6e2"/>
    <rect x="19" y="15" width="5" height="1" fill="#cdd6e2"/>
    <rect x="0" y="18" width="5" height="1" fill="#cdd6e2"/>
    <rect x="19" y="18" width="5" height="1" fill="#cdd6e2"/>
  </g>
</svg>
